<svg width="22" height="22" viewBox="0 0 22 22" fill="none" xmlns="http://www.w3.org/2000/svg">
<path d="M2 0C0.895431 0 0 0.89543 0 2V8C0 9.10457 0.89543 10 2 10H8C9.10457 10 10 9.10457 10 8V2C10 0.895431 9.10457 0 8 0H2Z" fill="#A1A1A1"/>
<path d="M14 0C12.8954 0 12 0.89543 12 2V8C12 9.10457 12.8954 10 14 10H20C21.1046 10 22 9.10457 22 8V2C22 0.895431 21.1046 0 20 0H14Z" fill="#A1A1A1"/>
<path d="M12 14C12 12.8954 12.8954 12 14 12H20C21.1046 12 22 12.8954 22 14V20C22 21.1046 21.1046 22 20 22H14C12.8954 22 12 21.1046 12 20V14Z" fill="#A1A1A1"/>
<path d="M2 12C0.895431 12 0 12.8954 0 14V20C0 21.1046 0.89543 22 2 22H8C9.10457 22 10 21.1046 10 20V14C10 12.8954 9.10457 12 8 12H2Z" fill="#A1A1A1"/>
</svg>
