<svg width="21" height="22" viewBox="0 0 21 22" fill="none" xmlns="http://www.w3.org/2000/svg">
<path fill-rule="evenodd" clip-rule="evenodd" d="M21.9313 9.77857C21.8966 9.46932 21.536 9.23693 21.2242 9.23693C20.2161 9.23693 19.3216 8.64503 18.9465 7.72963C18.5632 6.79206 18.8103 5.69863 19.5616 5.00948C19.7981 4.7933 19.8268 4.43142 19.6285 4.18004C19.1125 3.52486 18.5261 2.93304 17.8859 2.42013C17.6351 2.21893 17.2673 2.24693 17.0499 2.48767C16.3942 3.21381 15.2165 3.48369 14.3064 3.10396C13.3593 2.70557 12.7621 1.74589 12.8205 0.715732C12.8398 0.392155 12.6033 0.110817 12.2807 0.0732449C11.459 -0.0217897 10.6301 -0.0247365 9.80602 0.0666965C9.48711 0.101895 9.25063 0.376603 9.26135 0.696086C9.29721 1.71609 8.69278 2.65899 7.75512 3.04306C6.85594 3.41035 5.68646 3.14276 5.0321 2.42308C4.81584 2.18603 4.45396 2.15689 4.202 2.35326C3.54274 2.87051 2.94314 3.46282 2.42246 4.11259C2.21937 4.36519 2.24925 4.73134 2.4881 4.94866C3.2537 5.64198 3.50091 6.74491 3.10317 7.69329C2.72344 8.59747 1.78455 9.1802 0.709704 9.1802C0.360915 9.16899 0.112483 9.4031 0.074338 9.72021C-0.0224157 10.5466 -0.0235616 11.3887 0.0695904 12.2218C0.104134 12.5324 0.475678 12.7627 0.790905 12.7627C1.74878 12.7382 2.66843 13.3313 3.05422 14.2701C3.43878 15.2077 3.19157 16.3004 2.43915 16.9902C2.20382 17.2063 2.17394 17.5676 2.37228 17.819C2.88339 18.47 3.46988 19.0624 4.11245 19.5796C4.36449 19.7827 4.7312 19.754 4.94968 19.5133C5.6078 18.7853 6.78546 18.5159 7.69193 18.8964C8.64138 19.2936 9.2386 20.2532 9.18015 21.2839C9.16108 21.6076 9.39871 21.8895 9.71999 21.9265C10.1403 21.9755 10.5632 22 10.9872 22C11.3897 22 11.7923 21.9779 12.1947 21.9331C12.5137 21.8979 12.7501 21.6232 12.7393 21.3031C12.7024 20.2837 13.3079 19.3408 14.2443 18.9574C15.1496 18.5877 16.3141 18.8583 16.9686 19.5772C17.1861 19.8138 17.5454 19.8423 17.7988 19.6466C18.4568 19.1306 19.0552 18.5388 19.5783 17.8872C19.7813 17.6352 19.7527 17.2685 19.5126 17.0512C18.747 16.3579 18.4985 15.2548 18.8963 14.3071C19.2702 13.4149 20.1742 12.8159 21.1466 12.8159L21.2826 12.8194C21.598 12.8451 21.8882 12.6021 21.9264 12.2802C22.0233 11.453 22.0245 10.6117 21.9313 9.77857ZM11.0179 14.6924C8.99459 14.6924 7.34879 13.0466 7.34879 11.0233C7.34879 9.00004 8.99459 7.35416 11.0179 7.35416C13.0411 7.35416 14.6869 9.00004 14.6869 11.0233C14.6869 13.0466 13.0411 14.6924 11.0179 14.6924Z" fill="#A1A1A1"/>
</svg>
