<svg width="30" height="23" viewBox="0 0 30 23" fill="none" xmlns="http://www.w3.org/2000/svg">
<path d="M27.2204 16.2898C26.4991 15.7076 25.143 14.9692 23.6897 13.7899L23.1885 15.2421C23.1034 15.4901 22.8326 15.6213 22.5855 15.5355C22.5599 15.5269 22.5362 15.5158 22.5132 15.5032C22.3132 15.3946 22.2146 15.1548 22.2914 14.9328L22.8121 13.4234C22.8691 13.2583 22.8108 13.0293 22.6845 12.9094C22.6136 12.8411 22.5426 12.7721 22.471 12.7018C22.3467 12.5794 22.2012 12.6118 22.1445 12.7765L21.8815 13.5377C21.7964 13.7855 21.5259 13.9163 21.2783 13.8315C21.2529 13.8224 21.2288 13.8122 21.2057 13.7997C21.0061 13.6912 20.9076 13.4515 20.9842 13.2288L21.417 11.9745C21.4743 11.8089 21.4292 11.5674 21.3195 11.4308C21.2422 11.3357 21.1661 11.2383 21.0906 11.1389C20.9845 11.0001 20.8555 11.0194 20.799 11.1847L20.5752 11.833C20.4899 12.0813 20.2195 12.2128 19.972 12.1268C19.9467 12.1177 19.9226 12.1081 19.8996 12.0957C19.7 11.9872 19.6019 11.7466 19.6783 11.5243L20.1388 10.19C20.1963 10.0251 20.1692 9.76994 20.0818 9.6192C19.9997 9.47482 19.9185 9.32683 19.8392 9.17631C19.7577 9.02231 19.6484 9.02893 19.5914 9.19406L19.2687 10.1287C19.1836 10.3766 18.9135 10.5077 18.6659 10.4217C18.6401 10.4134 18.6161 10.4028 18.5936 10.3906C18.3935 10.2819 18.2952 10.0417 18.3723 9.81922L19.1726 7.50053C19.1414 7.3604 19.1152 7.22594 19.0986 7.11252C18.956 6.15263 18.6066 4.3527 17.923 3.59375C17.2069 2.79976 16.1497 3.05292 15.675 3.5625C15.437 3.819 15.3021 4.38646 15.2385 4.73014C15.1992 4.94336 15.1836 5.19113 15.2378 5.43187C15.3141 5.77268 15.2578 6.05902 14.916 6.12953C14.1149 6.29782 12.6501 6.52334 11.2391 6.32002C8.45777 5.91908 8.69383 4.51771 8.69383 4.51771C8.69383 4.51771 9.08328 2.5793 8.58755 1.53558C8.43813 1.2198 7.95964 0.875825 7.62316 0.784087C7.50332 0.752247 7.38445 0.739061 7.26666 0.734575C6.86868 1.90328 6.2693 4.91995 8.85923 8.52018C12.2175 13.1919 21.0457 18.5557 22.71 19.5421C22.8605 19.6314 22.8481 19.6586 22.6832 19.6023C21.4752 19.1876 16.8415 17.4932 12.8601 14.6528C7.96737 11.1601 3.96193 7.02963 5.00708 2.09458C4.9305 2.17321 4.85848 2.24668 4.79398 2.30856C4.24149 2.84003 3.82035 3.16509 3.02275 4.53983C2.84794 4.8423 2.46984 5.23744 2.20551 5.46619C1.88923 5.73898 1.47616 6.17176 1.11759 6.78879C0.760541 7.40312 0.471355 7.93646 0.274859 8.30996C0.112206 8.61903 0.0783096 9.14226 0.25813 9.44184C0.386002 9.65662 0.563563 9.90126 0.799984 10.1214C1.05557 10.36 1.44184 10.7479 1.68412 11.0003C1.7887 11.1096 1.91744 11.2239 2.07214 11.3301C2.36054 11.5276 2.74013 11.6807 2.87028 11.7613C3.00064 11.8415 3.0713 11.9703 3.02822 12.0496C2.98513 12.1289 3.11078 12.2801 3.30907 12.3878C3.50737 12.4955 3.7703 12.5303 3.8959 12.4667C4.02181 12.4026 4.20696 12.3959 4.30922 12.4514C4.41153 12.507 4.44963 12.6356 4.39428 12.7375C4.33873 12.8397 4.44372 13.0042 4.62938 13.105C4.81505 13.2059 5.06467 13.2277 5.18766 13.1527C5.31083 13.0796 5.48886 13.0613 5.58485 13.1134C5.68037 13.1653 5.7671 13.3268 5.7784 13.4737C5.78995 13.621 5.93391 13.8137 6.1002 13.9041C6.2665 13.9944 6.49838 14.0124 6.61762 13.9453C6.73722 13.8777 6.88726 13.9592 6.9529 14.1274C7.01903 14.2958 7.25426 14.531 7.47777 14.6524C7.70128 14.7738 7.94545 14.8196 8.0225 14.754C8.09934 14.6877 8.25544 14.6851 8.37079 14.7478C8.48568 14.8102 8.59479 14.9564 8.61324 15.0749C8.63218 15.1927 8.83821 15.3441 9.07302 15.4146C9.30844 15.4841 9.59656 15.4725 9.71663 15.389C9.83675 15.3054 9.96768 15.3491 10.0089 15.487C10.0487 15.6255 10.2388 15.8566 10.4333 16.0025C10.6266 16.1495 10.9006 16.2511 11.0447 16.2295C11.1886 16.2085 11.3796 16.2522 11.4715 16.3259C11.563 16.4013 11.5955 16.5392 11.5433 16.6352C11.4909 16.7316 11.6255 16.9051 11.8427 17.023C12.0603 17.1413 12.3266 17.2194 12.4386 17.1968C12.5499 17.1745 12.7199 17.2195 12.8179 17.2979C12.9163 17.3757 12.9678 17.4914 12.9331 17.5553C12.8984 17.6192 12.9791 17.7296 13.1133 17.8025C13.2481 17.8757 13.4675 17.9413 13.6038 17.9494C13.7403 17.957 13.9076 18.0077 13.9772 18.0624C14.0474 18.1169 14.0729 18.2182 14.0344 18.289C13.9963 18.3592 14.2142 18.5511 14.521 18.7178L14.5674 18.743C14.8747 18.9099 15.1683 18.9615 15.2236 18.8596C15.2792 18.7574 15.4126 18.7224 15.5208 18.7812C15.6294 18.8402 15.6724 18.9716 15.6171 19.0734C15.5615 19.1757 15.7341 19.3768 16.0026 19.5227C16.2712 19.6686 16.613 19.7807 16.7665 19.7732C16.9199 19.7648 17.0911 19.8578 17.1486 19.9807C17.206 20.1028 17.4969 20.3344 17.7974 20.4977C18.098 20.661 18.433 20.749 18.5455 20.6946C18.658 20.64 18.8517 20.6175 18.9774 20.6439C19.103 20.6718 19.2078 20.7882 19.2102 20.9052C19.2129 21.0227 19.4849 21.202 19.8184 21.3079L19.9183 21.3388C20.2514 21.4433 20.6067 21.4467 20.7114 21.3453C20.8156 21.2449 20.9631 21.1839 21.0403 21.2094C21.1174 21.235 21.2001 21.3675 21.2248 21.5047C21.2493 21.6423 21.4609 21.7974 21.6965 21.8502C21.9323 21.9041 22.2285 21.8164 22.3577 21.655C22.4869 21.4934 22.7202 21.3851 22.8786 21.4138C23.0374 21.4417 23.1092 21.5683 23.0397 21.6962C22.9701 21.8243 23.1948 21.9661 23.5403 22.0143C23.8894 22.0615 24.2263 21.9966 24.2959 21.8686C24.3654 21.7407 24.5164 21.6476 24.6329 21.6619C24.7497 21.6757 24.8658 21.7586 24.8923 21.8472C24.9182 21.9359 25.1117 21.988 25.3246 21.9624C25.537 21.9377 25.7754 21.8448 25.8564 21.7569C25.9377 21.6686 26.2886 21.5866 26.627 21.4998C27.326 21.3197 28.4138 20.8106 28.8083 19.3581C29.4077 17.1494 28.7523 17.5276 27.2204 16.2898Z" fill="#A1A1A1"/>
</svg>
